<?xml version="1.0" encoding="UTF-8" standalone="no"?>
<svg
   xmlns:dc="http://purl.org/dc/elements/1.1/"
   xmlns:cc="http://creativecommons.org/ns#"
   xmlns:rdf="http://www.w3.org/1999/02/22-rdf-syntax-ns#"
   xmlns:svg="http://www.w3.org/2000/svg"
   xmlns="http://www.w3.org/2000/svg"
   xmlns:sodipodi="http://sodipodi.sourceforge.net/DTD/sodipodi-0.dtd"
   xmlns:inkscape="http://www.inkscape.org/namespaces/inkscape"
   style="enable-background:new"
   version="1.1"
   id="svg2"
   viewBox="0 0 2630.3768 337.66896"
   height="337.66898"
   width="2630.3767"
   inkscape:version="0.91 r13725"
   sodipodi:docname="panorama_logo_with_text.svg">
  <sodipodi:namedview
     pagecolor="#ffffff"
     bordercolor="#666666"
     borderopacity="1"
     objecttolerance="10"
     gridtolerance="10"
     guidetolerance="10"
     inkscape:pageopacity="0"
     inkscape:pageshadow="2"
     inkscape:window-width="2560"
     inkscape:window-height="1367"
     id="namedview8"
     showgrid="false"
     fit-margin-top="0"
     fit-margin-left="0"
     fit-margin-right="0"
     fit-margin-bottom="0"
     inkscape:zoom="0.4609375"
     inkscape:cx="990.84897"
     inkscape:cy="168.83401"
     inkscape:window-x="0"
     inkscape:window-y="0"
     inkscape:window-maximized="1"
     inkscape:current-layer="svg2" />
  <defs
     id="defs4" />
  <metadata
     id="metadata7">
    <rdf:RDF>
      <cc:Work
         rdf:about="">
        <dc:format>image/svg+xml</dc:format>
        <dc:type
           rdf:resource="http://purl.org/dc/dcmitype/StillImage" />
        <dc:title></dc:title>
      </cc:Work>
    </rdf:RDF>
  </metadata>
  <g
     transform="translate(23557.377,-16241.86)"
     id="layer1">
    <g
       id="flowRoot4854"
       style="font-style:normal;font-variant:normal;font-weight:normal;font-stretch:normal;font-size:40px;line-height:125%;font-family:Lato;-inkscape-font-specification:Lato;letter-spacing:0px;word-spacing:0px;fill:#4d4d4d;fill-opacity:1;stroke:none;stroke-width:1px;stroke-linecap:butt;stroke-linejoin:miter;stroke-opacity:1"
       transform="matrix(9.3226267,0,0,9.3226267,-20631.071,15137.022)">
      <path
         d="m -31.743125,150.95898 -3,0 q -0.52,0 -0.84,-0.26 -0.32,-0.26 -0.48,-0.66 l -2.68,-6.92 -12.86,0 -2.68,6.92 q -0.12,0.36 -0.46,0.64 -0.34,0.28 -0.84,0.28 l -3,0 11.46,-28.66 3.92,0 11.46,28.66 z m -18.78,-10.64 10.7,0 -4.5,-11.66 q -0.22,-0.52 -0.44,-1.2 -0.2,-0.68 -0.42,-1.46 -0.2,0.78 -0.42,1.48 -0.2,0.68 -0.42,1.2 l -4.5,11.64 z m -27.529375,0.28 q 0.24,0.48 0.46,1.02 0.22,0.52 0.44,1.04 0.2,-0.54 0.42,-1.06 0.22,-0.54 0.48,-1.02 l 9.72,-17.62 q 0.24,-0.46 0.52,-0.56 0.3,-0.1 0.82,-0.1 l 2.86,0 0,28.66 -3.4,0 0,-21.06 q 0,-0.42 0.02,-0.9 0.02,-0.48 0.06,-0.98 l -9.82,17.92 q -0.46,0.9 -1.4,0.9 l -0.56,0 q -0.94,0 -1.4,-0.9 l -10.04,-17.98 q 0.06,0.52 0.08,1.02 0.04,0.5 0.04,0.92 l 0,21.06 -3.4,0 0,-28.66 2.86,0 q 0.52,0 0.8,0.1 0.28,0.1 0.54,0.56 l 9.9,17.64 0,0 z m -17.909375,10.36 -3,0 q -0.52,0 -0.84,-0.26 -0.319995,-0.26 -0.480005,-0.66 l -2.67999,-6.92 -12.86001,0 -2.67999,6.92 q -0.12001,0.36 -0.46001,0.64 -0.33999,0.28 -0.83999,0.28 l -3,0 11.45999,-28.66 3.92,0 11.460005,28.66 z m -18.779995,-10.64 10.69999,0 -4.5,-11.66 q -0.22,-0.52 -0.44,-1.2 -0.19999,-0.68 -0.42,-1.46 -0.2,0.78 -0.42,1.48 -0.19999,0.68 -0.41999,1.2 l -4.5,11.64 z m -25.73813,-1.32 0,11.96 -3.86,0 0,-28.66 8.1,0 q 2.72,0 4.7,0.56 1.98,0.54 3.26,1.58 1.3,1.04 1.92,2.52 0.62,1.46 0.62,3.28 0,1.52 -0.48,2.84 -0.48,1.32 -1.4,2.38 -0.9,1.04 -2.22,1.8 -1.3,0.74 -2.96,1.1 0.76,0.48 1.28,1.22 l 8.36,11.38 -3.44,0 q -1.06,0 -1.56,-0.82 l -7.44,-10.24 q -0.34,-0.48 -0.74,-0.68 -0.38,-0.22 -1.2,-0.22 l -2.94,0 z m 0,-2.82 4.08,0 q 1.68,0 2.96,-0.4 1.3,-0.42 2.16,-1.16 0.88,-0.76 1.32,-1.8 0.44,-1.04 0.44,-2.3 0,-2.56 -1.68,-3.86 -1.68,-1.3 -5.04,-1.3 l -4.24,0 0,10.82 z m -9.41125,0.46 q 0,3.22 -1.02,5.92 -1.02,2.68 -2.88,4.62 -1.86,1.94 -4.48,3.02 -2.6,1.06 -5.76,1.06 -3.16,0 -5.76,-1.06 -2.6,-1.08 -4.46,-3.02 -1.86,-1.94 -2.88,-4.62 -1.02,-2.7 -1.02,-5.92 0,-3.22 1.02,-5.9 1.02,-2.7 2.88,-4.64 1.86,-1.96 4.46,-3.04 2.6,-1.08 5.76,-1.08 3.16,0 5.76,1.08 2.62,1.08 4.48,3.04 1.86,1.94 2.88,4.64 1.02,2.68 1.02,5.9 z m -3.98,0 q 0,-2.64 -0.72,-4.74 -0.72,-2.1 -2.04,-3.54 -1.32,-1.46 -3.2,-2.24 -1.88,-0.78 -4.2,-0.78 -2.3,0 -4.18,0.78 -1.88,0.78 -3.22,2.24 -1.32,1.44 -2.04,3.54 -0.72,2.1 -0.72,4.74 0,2.64 0.72,4.74 0.72,2.08 2.04,3.54 1.34,1.44 3.22,2.22 1.88,0.76 4.18,0.76 2.32,0 4.2,-0.76 1.88,-0.78 3.2,-2.22 1.32,-1.46 2.04,-3.54 0.72,-2.1 0.72,-4.74 z m -51.04687,-14.34 q 0.26,0 0.44,0.04 0.18,0.02 0.32,0.1 0.14,0.06 0.28,0.2 0.14,0.12 0.3,0.32 l 16.58,21.58 q -0.04,-0.52 -0.08,-1 -0.02,-0.5 -0.02,-0.94 l 0,-20.3 3.4,0 0,28.66 -1.94,0 q -0.46,0 -0.78,-0.16 -0.3,-0.16 -0.6,-0.54 l -16.58,-21.58 q 0.04,0.5 0.06,0.98 0.02,0.48 0.02,0.88 l 0,20.42 -3.4,0 0,-28.66 2,0 0,0 z m -5.80938,28.66 -3,0 q -0.52,0 -0.84,-0.26 -0.32,-0.26 -0.48,-0.66 l -2.68,-6.92 -12.86,0 -2.68,6.92 q -0.12,0.36 -0.46,0.64 -0.34,0.28 -0.84,0.28 l -3,0 11.46,-28.66 3.92,0 11.46,28.66 z m -18.78,-10.64 10.7,0 -4.5,-11.66 q -0.22,-0.52 -0.44,-1.2 -0.2,-0.68 -0.42,-1.46 -0.2,0.78 -0.42,1.48 -0.2,0.68 -0.42,1.2 l -4.5,11.64 z m -22.61312,-0.08 0,10.72 -3.86,0 0,-28.66 8.46,0 q 2.72,0 4.72,0.64 2.02,0.62 3.34,1.78 1.32,1.16 1.95999,2.8 0.66001,1.64 0.66001,3.66 0,2 -0.7,3.66 -0.7,1.66 -2.06,2.86 -1.34,1.2 -3.34,1.88 -1.98,0.66 -4.58,0.66 l -4.6,0 z m 0,-3.08 4.6,0 q 1.66,0 2.92,-0.44 1.28,-0.44 2.14,-1.22 0.88,-0.8 1.32,-1.9 0.44,-1.1 0.44,-2.42 0,-2.74 -1.7,-4.28 -1.68,-1.54 -5.12,-1.54 l -4.6,0 0,11.8 z m -25.40814,3.91424 a 3.0383861,3.0383861 0 0 0 3.24608,2.81541 3.0383861,3.0383861 0 0 0 2.81552,-3.24597 3.0383861,3.0383861 0 0 0 -3.24608,-2.8153 3.0383861,3.0383861 0 0 0 -1.6269,0.61431 l 0,0 2.41713,2.2691 -0.68769,0.82144 -2.45242,-2.30235 0,0 a 3.0383861,3.0383861 0 0 0 -0.46489,1.84283 z m -9.66337,2.46798 0,0.98813 7.08888,0 0,-0.98813 -7.08888,0 z m 0,-2.11829 0,0.98813 7.08888,0 0,-0.98813 -7.08888,0 z m 0,-2.11818 0,0.98824 7.08888,0 0,-0.98824 -7.08888,0 z m 0,-2.11818 0,0.98824 7.08888,0 0,-0.98824 -7.08888,0 z m 0,-6.35432 17.13326,0 0,0.98802 -17.13326,0 z m 0,2.11807 17.13326,0 0,0.98813 -17.13326,0 z m 0,2.11818 17.13326,0 0,0.98813 -17.13326,0 z m 0,-6.35454 17.13326,0 0,0.98813 -17.13326,0 z m -11.57721,-0.30517 a 8.2126566,8.2126566 0 0 0 -8.21281,8.21281 8.2126566,8.2126566 0 0 0 8.21281,8.21292 8.2126566,8.2126566 0 0 0 8.2126,-8.21292 8.2126566,8.2126566 0 0 0 -1.29856,-4.43223 l -6.61015,6.10912 -2.21365,-2.1377 6.71098,-6.2019 0,0 a 8.2126566,8.2126566 0 0 0 -4.80025,-1.54914 z m -15.12352,-9.89732 0,36.22037 c 17.33835,-0.74754 34.31178,-0.74754 50.9203,0 l 0,-36.22037 c -18.36188,1.77793 -35.11811,1.47641 -50.9203,0 z m 2.73828,2.30632 c 14.10246,1.28837 29.0563,1.5515 45.4432,0 l 0,31.60826 c -14.822,-0.65228 -29.96977,-0.65228 -45.4432,0 l 0,-31.60826 z"
         id="path4154"
         inkscape:connector-curvature="0" />
    </g>
  </g>
</svg>
