<?xml version="1.0" encoding="UTF-8" standalone="no"?>
<svg
   xmlns:dc="http://purl.org/dc/elements/1.1/"
   xmlns:cc="http://creativecommons.org/ns#"
   xmlns:rdf="http://www.w3.org/1999/02/22-rdf-syntax-ns#"
   xmlns:svg="http://www.w3.org/2000/svg"
   xmlns="http://www.w3.org/2000/svg"
   style="enable-background:new"
   version="1.1"
   id="svg2"
   viewBox="0 0 512.00001 511.99998"
   height="512"
   width="512">
  <defs
     id="defs4" />
  <metadata
     id="metadata7">
    <rdf:RDF>
      <cc:Work
         rdf:about="">
        <dc:format>image/svg+xml</dc:format>
        <dc:type
           rdf:resource="http://purl.org/dc/dcmitype/StillImage" />
        <dc:title></dc:title>
      </cc:Work>
    </rdf:RDF>
  </metadata>
  <g
     transform="translate(22498.189,-16154.695)"
     id="layer1">
    <path
       id="rect4158"
       d="m -22479.544,16241.86 0,337.669 c 161.639,-6.969 319.876,-6.969 474.711,0 l 0,-337.669 c -171.181,16.575 -327.393,13.764 -474.711,0 z m 25.528,21.501 c 131.472,12.011 270.881,14.464 423.65,0 l 0,294.672 c -138.18,-6.081 -279.397,-6.081 -423.65,0 l 0,-294.672 z"
       style="color:#000000;clip-rule:nonzero;display:inline;overflow:visible;visibility:visible;opacity:1;isolation:auto;mix-blend-mode:normal;color-interpolation:sRGB;color-interpolation-filters:linearRGB;solid-color:#000000;solid-opacity:1;fill:#4d4d4d;fill-opacity:1;fill-rule:nonzero;stroke:none;stroke-width:41.86855316;stroke-linecap:butt;stroke-linejoin:miter;stroke-miterlimit:4;stroke-dasharray:none;stroke-dashoffset:0;stroke-opacity:1;color-rendering:auto;image-rendering:auto;shape-rendering:auto;text-rendering:auto;enable-background:accumulate" />
    <path
       id="path4254"
       d="m -22338.553,16334.129 a 76.563532,76.563532 0 0 0 -76.565,76.565 76.563532,76.563532 0 0 0 76.565,76.566 76.563532,76.563532 0 0 0 76.563,-76.566 76.563532,76.563532 0 0 0 -12.106,-41.32 l -61.624,56.953 -20.637,-19.929 62.564,-57.818 0,0 a 76.563532,76.563532 0 0 0 -44.751,-14.442 z"
       style="fill:#4d4d4d;fill-opacity:1;fill-rule:nonzero;stroke:#4d4d4d;stroke-width:5.00215197;stroke-linecap:round;stroke-miterlimit:4;stroke-dasharray:none;stroke-opacity:1" />
    <path
       id="path4250"
       d="m -22230.623,16336.974 159.727,0 0,9.212 -159.727,0 z"
       style="fill:#4d4d4d;fill-opacity:1;fill-rule:nonzero;stroke:#4d4d4d;stroke-width:4.60674667;stroke-linecap:round;stroke-miterlimit:4;stroke-dasharray:none;stroke-opacity:1" />
    <path
       id="path4248"
       d="m -22230.623,16396.215 159.727,0 0,9.212 -159.727,0 z"
       style="fill:#4d4d4d;fill-opacity:1;fill-rule:nonzero;stroke:#4d4d4d;stroke-width:4.60674667;stroke-linecap:round;stroke-miterlimit:4;stroke-dasharray:none;stroke-opacity:1" />
    <path
       id="path4246"
       d="m -22230.623,16376.468 159.727,0 0,9.212 -159.727,0 z"
       style="fill:#4d4d4d;fill-opacity:1;fill-rule:nonzero;stroke:#4d4d4d;stroke-width:4.60674667;stroke-linecap:round;stroke-miterlimit:4;stroke-dasharray:none;stroke-opacity:1" />
    <path
       id="path4244"
       d="m -22230.623,16356.722 159.727,0 0,9.211 -159.727,0 z"
       style="fill:#4d4d4d;fill-opacity:1;fill-rule:nonzero;stroke:#4d4d4d;stroke-width:4.60674667;stroke-linecap:round;stroke-miterlimit:4;stroke-dasharray:none;stroke-opacity:1" />
    <path
       d="m -22230.623,16475.203 0,9.212 66.087,0 0,-9.212 -66.087,0 z m 0,-19.748 0,9.212 66.087,0 0,-9.212 -66.087,0 z m 0,-19.747 0,9.213 66.087,0 0,-9.213 -66.087,0 z m 0,-19.747 0,9.213 66.087,0 0,-9.213 -66.087,0 z"
       style="fill:#4d4d4d;fill-opacity:1;fill-rule:nonzero;stroke:#4d4d4d;stroke-width:4.60674667;stroke-linecap:round;stroke-miterlimit:4;stroke-dasharray:none;stroke-opacity:1"
       id="path4225" />
    <path
       id="path4252-6"
       d="m -22140.535,16452.195 a 28.325739,28.325739 0 0 0 30.262,26.247 28.325739,28.325739 0 0 0 26.248,-30.261 28.325739,28.325739 0 0 0 -30.262,-26.246 28.325739,28.325739 0 0 0 -15.167,5.727 l 0,0 22.534,21.154 -6.411,7.658 -22.863,-21.464 0,0 a 28.325739,28.325739 0 0 0 -4.334,17.18 z"
       style="fill:#4d4d4d;fill-opacity:1;fill-rule:nonzero;stroke:#4d4d4d;stroke-width:1.74149585;stroke-linecap:round;stroke-miterlimit:4;stroke-dasharray:none;stroke-opacity:1" />
  </g>
</svg>
